<svg height="180.931358" viewBox="0 0 613.61328 200.64496" width="552.69579" xmlns="http://www.w3.org/2000/svg"><g transform="translate(-89.19 -205.67504)"><g><path d="m698.52 218.61c-4.16-6.01-13.34-13.15-33.54-12.93h-486.67c-23.42.34-37.62 16.52-42.69 30.28-.04.11-44.94 130.77-44.94 130.77-1.33 4.29-1.49 7.06-1.49 9.02 0 17.14 12.49 30.57 28.44 30.57h489.21c18.12 0 40.07-9.44 48.23-30.5l.08-.23 4.96-14.77c-.03.08 39.59-113.04 39.59-113.04 5.69-14.38 2.5-23.82-1.18-29.17z" fill="#fff"/><g fill="#b72c28"><path d="m250.71 288.74c-2.98 0-7.12 2.47-10.51 6.06-3.52 3.83-6.38 8.66-8.2 14.07-3.86 10.87-2.04 19.95 4.53 19.95 6.88 0 14.92-8.58 18.94-19.95 3.9-11.04 1.97-20.13-4.76-20.13z"/><path d="m686.41 225.8c-3.7-5.37-12.21-8.16-24.07-8.09h-481.64c-22.58.39-30.7 19.07-31.97 22.66l-44.43 129.21c-.85 2.55-.92 4.21-.92 5.41 0 10.98 7.35 19.29 17.05 19.29h484.3c13.84 0 30.5-6.92 37.01-22.07h-503.76l3.95-13.54h504.41c.35-1.2.66-1.93.66-1.93s39.24-112.01 39.33-112.27c1.18-3.05 2.31-6.96 2.31-10.71-.02-2.86-.59-5.64-2.23-7.96zm-503.86 125.88c-20.91.08-32.63-29.69-25.29-58.41 7.97-31.47 32.2-57.57 53.97-57.57 12.64.08 24.71 8.7 29.08 23.2l-15.43 8.43c-.88-9.39-7.92-14.39-14.72-14.5-12.56 0-27.49 18.21-33.29 39.86-5.49 20.45-1.4 39.16 10.87 39.23 4.71.12 9.39-2.55 14.11-6.76l8.81 14.65c-9.16 7.62-19.29 11.87-28.11 11.87zm51.08-6.73c-14.46 0-21.8-16.2-16.13-35.76 5.84-20.22 22.46-36 37.43-36 14.77 0 21.49 16.35 15.77 36-5.72 19.91-22.31 35.76-37.07 35.76zm31.89-1.47 35.14-104.74h16.51l-35.14 104.74zm52.12 1.16c-14.58 0-21.85-15.81-16.16-35.37 5.76-20.03 22.07-36.42 37.08-36.42 14.3 0 20.88 16.51 15.39 35.38-.5 2.12-1.47 4.25-2.28 6.37h-36.61c-1.31 8.27.85 14.42 5.91 14.42 3.82 0 8-2.98 11.64-7.81h16.08l-.73 1.81c-6.63 11.96-19.81 21.62-30.32 21.62zm91.04-1.16 16.43-48.83c1.16-3.29-.88-6.57-4.52-6.57s-7.82 2.94-9.05 6.57l-16.36 48.83h-16.5l16.43-48.83c1.2-3.63-.81-6.57-4.45-6.57-3.59 0-7.92 2.28-9.31 6.57l-16.2 48.83h-16.55l23.51-69.09h16.51l-1.47 4.45c3.6-3.13 8.35-5.65 13.53-5.57 5.76.08 8.9 3.71 10.29 6.8 3.75-4.02 11.29-6.88 17.78-6.8 7.42.08 17.86 6.8 12.6 22.58l-16.12 47.63zm59.15-.11 1.54-5.34.19-.42c-4.75 6.11-11.98 7.62-16.93 6.61-12.02-2.59-15.51-20.76-7.96-40.28 7.38-19.56 23.16-33.76 34.99-31.32 3.83.89 7.15 2.63 9.63 5.42l.11.15 1.21-3.87h16.27l-23.31 69.05zm91.29-53.9-18.02 54.01h-16.46l16.12-47.24c2.05-6.03-3.25-8.66-7.19-8-3.43.51-7.35 2.59-9.97 9.74l-15.46 45.51h-16.55l23.54-69.09h16.48l-1.47 4.45c4.02-3.13 9.7-5.57 14.88-5.57 7.53-.08 16.3 6.41 14.1 16.19zm93.56 18.68-.13.15-15.5-9.48-.07-.08c-.75-.47-1.55-.19-2.06.62-.35.78-.07 1.66.66 2.16h.08l16.15 9.94v.28c-5.76 20.17-20.88 34.68-38.62 34.68-17.79 0-32.9-14.5-38.71-34.68v-.16l16.33-10.06h.07c.66-.5.93-1.39.54-2.16-.35-.81-1.2-1.09-1.93-.62l-.08.08-15.74 9.63v-.31c-1-4.48-1.58-9.32-1.58-14.23 0-2.36.07-4.68.34-6.88v-.19h17.9.08c.8 0 1.47-.66 1.47-1.55 0-.92-.66-1.58-1.47-1.58h-.08-17.4v-.31c.97-6.5 2.98-12.57 5.76-17.9l.08-.16 10.17 6.03.07.08c.74.35 1.55.09 1.97-.69.35-.81.08-1.78-.66-2.13l-.12-.08-10.04-5.84.11-.19c7.42-12.76 19.44-20.99 32.9-20.99 13.45 0 25.36 8.16 32.86 20.99l.11.19-10.01 5.84-.07.08c-.66.35-1.09 1.32-.66 2.13.35.78 1.27 1.04 1.93.69l.11-.08 10.13-6.03.16.23c2.71 5.34 4.64 11.4 5.68 17.94v.2h-17.35-.13c-.73 0-1.39.66-1.39 1.58 0 .9.66 1.55 1.39 1.55h.13 17.78v.27c.18 2.24.38 4.44.38 6.8.03 4.92-.54 9.68-1.54 14.24z"/><path d="m334.64 287.35c-2.9 0-6.88 2.55-10.01 6.34-2.16 2.48-4.06 5.34-5.61 8.39l21.65.11c1.4-8.58-.73-14.84-6.03-14.84z"/><path d="m613.09 328.29h16.81c.2 0 .38-.2.38-.39 0-1.51 0-7.5 0-12.14 0-5.49-5.4-6.72-7.02-6.72-1.82 0-10.17 0-10.17 0s-8.28 0-10.05 0c-1.64 0-7.04 1.23-7.04 6.72v12.14c0 .19.18.39.27.39z"/><path d="m476.76 289.82c-5.07-2.24-11.68 5.37-16.98 15.51-5.1 9.93-5.33 21.45-.8 22.69 4.71 1.08 10.82-5.42 14.92-12.84 3.79-6.72 9.39-22.57 2.86-25.36z"/><path d="m631.61 264.11c-.59-.31-1.71-.66-2.79-1.59-.85-.54-1.97-2.04-2.4-2.71l-.15-.16c-.35-.61-.42-.77-1.09-.77h-.15-1.31c-.39 0-.78-.23-1.08-.66-.28-.39-.86-1.32-1.02-1.63-.08-.27.08-.42.47-.42h1.32c.39 0 .59-.31.39-.66-.28-.38-.54-.73-.97-1.19-.27-.66-.47-.78-1.04-.78h-.23-1.3c-.51 0-.85-.16-1.02-.62-.3-.27-.66-.92-.96-1.39l-.08-.19c-.08-.08-.08-.08-.08-.2-.27-.47-1.09-.47-1.09-.47h-7.86s-.72 0-1.03.47c-.08.11-.08.11-.2.2l-.08.19c-.27.47-.65 1.12-.8 1.39-.28.47-.66.62-1 .62h-1.4-.24c-.65 0-.8.11-1.07.78-.31.46-.66.81-.82 1.19-.31.35-.08.66.27.66h1.28c.5 0 .66.16.5.42-.15.31-.8 1.24-1.04 1.63-.27.42-.65.66-1 .66h-1.31-.16c-.66 0-.78.16-1.16.77l-.09.16c-.47.66-1.62 2.16-2.35 2.71-1.2.92-2.2 1.28-2.86 1.59-.66.27-.73.73-.73 1.16 0 .58.35.74.66.74h2.27c1.4 0 1.4.5 1.4 1.89v25.36c0 2.09.35 2.51 2.2 3.24 1.82.73 3.87.85 3.87 4.02v6.19h17.63s0-3.05 0-6.19c0-3.17 2.09-3.29 3.94-4.02 1.73-.73 2.13-1.16 2.13-3.24 0-1.97 0-25.36 0-25.36 0-1.39 0-1.89 1.39-1.89h2.32c.27 0 .73-.16.73-.74-.01-.42-.21-.89-.81-1.16zm-6.24 28.65c0 .51-.35.93-.93.93h-22.58-.18c-.47 0-.86-.42-.86-.93v-25.59c0-.5.47-.93.97-.93h22.65c.44 0 .93.43.93.93z"/><path d="m631.01 330.5h-35.84c-.23 0-.42.19-.42.35v2.74c0 .2.2.39.42.39h17.91 17.93c.15 0 .35-.19.35-.39v-2.74c.01-.16-.19-.35-.35-.35z"/></g></g><g><path d="m126.07 356.02c-4.6 0-8.33 3.72-8.33 8.33 0 4.6 3.73 8.33 8.33 8.33 4.61 0 8.34-3.73 8.34-8.33 0-4.61-3.73-8.33-8.34-8.33z" fill="#fff"/><path d="m126.01 371.62c-3.98 0-7.21-3.23-7.21-7.21s3.22-7.21 7.21-7.21c3.98 0 7.21 3.22 7.21 7.21-.01 3.98-3.23 7.21-7.21 7.21z" fill="#b72c28"/></g><g><path d="m129.94 362.62c0-2.31-1.36-2.67-3.37-2.67h-3.59v8.69h1.82v-3.45h.88l2.03 3.45h1.98l-2.11-3.45c1.54-.1 2.36-.97 2.36-2.57z" fill="#fff"/><path d="m126.61 363.64h-1.81v-2.12h1.37c.85 0 2.01 0 2.01.95-.01.95-.6 1.17-1.57 1.17z" fill="#b72c28"/></g></g></svg>